<svg width="64" height="33" viewBox="0 0 64 33" fill="none" xmlns="http://www.w3.org/2000/svg">
<path d="M5.362 11.168C4.39133 11.168 3.55133 10.958 2.842 10.538C2.142 10.1087 1.60067 9.516 1.218 8.76C0.835333 7.99467 0.644 7.11267 0.644 6.114C0.644 5.106 0.835333 4.224 1.218 3.468C1.60067 2.70267 2.142 2.10533 2.842 1.676C3.55133 1.24667 4.39133 1.032 5.362 1.032C6.51 1.032 7.448 1.312 8.176 1.872C8.904 2.432 9.366 3.216 9.562 4.224H7.91C7.77933 3.65467 7.49933 3.202 7.07 2.866C6.64067 2.53 6.06667 2.362 5.348 2.362C4.368 2.362 3.59333 2.698 3.024 3.37C2.45467 4.03267 2.17 4.94733 2.17 6.114C2.17 7.27133 2.45467 8.18133 3.024 8.844C3.59333 9.50667 4.368 9.838 5.348 9.838C6.06667 9.838 6.64067 9.67933 7.07 9.362C7.49933 9.04467 7.77933 8.61067 7.91 8.06H9.562C9.366 9.03067 8.904 9.79133 8.176 10.342C7.448 10.8927 6.51 11.168 5.362 11.168ZM11.1372 11V0.92H12.6212V5.176C12.8546 4.77467 13.1766 4.462 13.5872 4.238C14.0072 4.00467 14.4692 3.888 14.9732 3.888C15.8039 3.888 16.4572 4.14933 16.9332 4.672C17.4092 5.19467 17.6472 5.974 17.6472 7.01V11H16.1772V7.164C16.1772 5.82 15.6406 5.148 14.5672 5.148C14.0072 5.148 13.5406 5.344 13.1672 5.736C12.8032 6.128 12.6212 6.688 12.6212 7.416V11H11.1372ZM22.643 11.168C21.9617 11.168 21.355 11.0187 20.823 10.72C20.3004 10.412 19.8897 9.98733 19.591 9.446C19.2924 8.90467 19.143 8.27467 19.143 7.556C19.143 6.828 19.2877 6.18867 19.577 5.638C19.8757 5.08733 20.2864 4.658 20.809 4.35C21.341 4.042 21.957 3.888 22.657 3.888C23.3384 3.888 23.931 4.042 24.435 4.35C24.939 4.64867 25.331 5.05 25.611 5.554C25.891 6.058 26.031 6.61333 26.031 7.22C26.031 7.31333 26.0264 7.416 26.017 7.528C26.017 7.63067 26.0124 7.74733 26.003 7.878H20.599C20.6457 8.55 20.865 9.06333 21.257 9.418C21.6584 9.76333 22.1204 9.936 22.643 9.936C23.063 9.936 23.413 9.84267 23.693 9.656C23.9824 9.46 24.197 9.19867 24.337 8.872H25.821C25.6344 9.52533 25.261 10.0713 24.701 10.51C24.1504 10.9487 23.4644 11.168 22.643 11.168ZM22.643 5.106C22.1484 5.106 21.7097 5.25533 21.327 5.554C20.9444 5.84333 20.711 6.282 20.627 6.87H24.547C24.519 6.32867 24.3277 5.89933 23.973 5.582C23.6184 5.26467 23.175 5.106 22.643 5.106ZM30.8608 11.168C30.1795 11.168 29.5681 11.014 29.0268 10.706C28.4948 10.398 28.0748 9.97333 27.7668 9.432C27.4681 8.88133 27.3188 8.24667 27.3188 7.528C27.3188 6.80933 27.4681 6.17933 27.7668 5.638C28.0748 5.08733 28.4948 4.658 29.0268 4.35C29.5681 4.042 30.1795 3.888 30.8608 3.888C31.7195 3.888 32.4381 4.112 33.0168 4.56C33.6048 5.008 33.9828 5.61467 34.1508 6.38H32.5968C32.5035 5.99733 32.2981 5.69867 31.9808 5.484C31.6635 5.26933 31.2901 5.162 30.8608 5.162C30.4968 5.162 30.1608 5.25533 29.8528 5.442C29.5448 5.61933 29.2975 5.88533 29.1108 6.24C28.9241 6.58533 28.8308 7.01467 28.8308 7.528C28.8308 8.04133 28.9241 8.47533 29.1108 8.83C29.2975 9.17533 29.5448 9.44133 29.8528 9.628C30.1608 9.81467 30.4968 9.908 30.8608 9.908C31.2901 9.908 31.6635 9.80067 31.9808 9.586C32.2981 9.37133 32.5035 9.068 32.5968 8.676H34.1508C33.9921 9.42267 33.6188 10.0247 33.0308 10.482C32.4428 10.9393 31.7195 11.168 30.8608 11.168ZM35.7603 11V0.92H37.2443V6.926L39.9043 4.056H41.6823L38.7283 7.206L42.1163 11H40.2403L37.2443 7.444V11H35.7603ZM45.9809 11.168C45.3183 11.168 44.7209 11.0187 44.1889 10.72C43.6663 10.412 43.2509 9.98733 42.9429 9.446C42.6349 8.89533 42.4809 8.256 42.4809 7.528C42.4809 6.8 42.6349 6.16533 42.9429 5.624C43.2603 5.07333 43.6849 4.64867 44.2169 4.35C44.7489 4.042 45.3416 3.888 45.9949 3.888C46.6576 3.888 47.2503 4.042 47.7729 4.35C48.3049 4.64867 48.7249 5.07333 49.0329 5.624C49.3503 6.16533 49.5089 6.8 49.5089 7.528C49.5089 8.256 49.3503 8.89533 49.0329 9.446C48.7249 9.98733 48.3049 10.412 47.7729 10.72C47.2409 11.0187 46.6436 11.168 45.9809 11.168ZM45.9809 9.894C46.3356 9.894 46.6623 9.80533 46.9609 9.628C47.2689 9.45067 47.5163 9.18933 47.7029 8.844C47.8896 8.48933 47.9829 8.05067 47.9829 7.528C47.9829 7.00533 47.8896 6.57133 47.7029 6.226C47.5256 5.87133 47.2829 5.60533 46.9749 5.428C46.6763 5.25067 46.3496 5.162 45.9949 5.162C45.6403 5.162 45.3089 5.25067 45.0009 5.428C44.7023 5.60533 44.4596 5.87133 44.2729 6.226C44.0863 6.57133 43.9929 7.00533 43.9929 7.528C43.9929 8.05067 44.0863 8.48933 44.2729 8.844C44.4596 9.18933 44.7023 9.45067 45.0009 9.628C45.2996 9.80533 45.6263 9.894 45.9809 9.894ZM53.6758 11.168C52.8358 11.168 52.1731 10.9067 51.6878 10.384C51.2118 9.86133 50.9738 9.082 50.9738 8.046V4.056H52.4578V7.892C52.4578 9.236 53.0084 9.908 54.1098 9.908C54.6604 9.908 55.1131 9.712 55.4678 9.32C55.8224 8.928 55.9998 8.368 55.9998 7.64V4.056H57.4838V11H56.1678L56.0558 9.782C55.8411 10.2113 55.5238 10.552 55.1038 10.804C54.6931 11.0467 54.2171 11.168 53.6758 11.168ZM62.2836 11C61.6023 11 61.0609 10.8367 60.6596 10.51C60.2583 10.174 60.0576 9.58133 60.0576 8.732V5.302H58.8676V4.056H60.0576L60.2396 2.292H61.5416V4.056H63.5016V5.302H61.5416V8.732C61.5416 9.11467 61.6209 9.38067 61.7796 9.53C61.9476 9.67 62.2323 9.74 62.6336 9.74H63.4316V11H62.2836ZM3.71 29.168C2.83267 29.168 2.10933 28.9533 1.54 28.524C0.970667 28.0947 0.644 27.5253 0.56 26.816H2.058C2.13267 27.1333 2.31 27.4087 2.59 27.642C2.87 27.866 3.23867 27.978 3.696 27.978C4.144 27.978 4.47067 27.8847 4.676 27.698C4.88133 27.5113 4.984 27.2967 4.984 27.054C4.984 26.6993 4.83933 26.4613 4.55 26.34C4.27 26.2093 3.878 26.0927 3.374 25.99C2.982 25.906 2.59 25.794 2.198 25.654C1.81533 25.514 1.49333 25.318 1.232 25.066C0.98 24.8047 0.854 24.4547 0.854 24.016C0.854 23.4093 1.08733 22.9053 1.554 22.504C2.02067 22.0933 2.674 21.888 3.514 21.888C4.28867 21.888 4.914 22.0747 5.39 22.448C5.87533 22.8213 6.16 23.3487 6.244 24.03H4.816C4.76933 23.7313 4.62933 23.498 4.396 23.33C4.172 23.162 3.86867 23.078 3.486 23.078C3.11267 23.078 2.82333 23.1573 2.618 23.316C2.41267 23.4653 2.31 23.6613 2.31 23.904C2.31 24.1467 2.45 24.338 2.73 24.478C3.01933 24.618 3.39733 24.744 3.864 24.856C4.33067 24.9587 4.76 25.08 5.152 25.22C5.55333 25.3507 5.87533 25.5467 6.118 25.808C6.36067 26.0693 6.482 26.452 6.482 26.956C6.49133 27.5907 6.244 28.118 5.74 28.538C5.24533 28.958 4.56867 29.168 3.71 29.168ZM11.3501 29.168C10.6687 29.168 10.0621 29.0187 9.53006 28.72C9.0074 28.412 8.59673 27.9873 8.29806 27.446C7.9994 26.9047 7.85006 26.2747 7.85006 25.556C7.85006 24.828 7.99473 24.1887 8.28406 23.638C8.58273 23.0873 8.9934 22.658 9.51606 22.35C10.0481 22.042 10.6641 21.888 11.3641 21.888C12.0454 21.888 12.6381 22.042 13.1421 22.35C13.6461 22.6487 14.0381 23.05 14.3181 23.554C14.5981 24.058 14.7381 24.6133 14.7381 25.22C14.7381 25.3133 14.7334 25.416 14.7241 25.528C14.7241 25.6307 14.7194 25.7473 14.7101 25.878H9.30606C9.35273 26.55 9.57206 27.0633 9.96406 27.418C10.3654 27.7633 10.8274 27.936 11.3501 27.936C11.7701 27.936 12.1201 27.8427 12.4001 27.656C12.6894 27.46 12.9041 27.1987 13.0441 26.872H14.5281C14.3414 27.5253 13.9681 28.0713 13.4081 28.51C12.8574 28.9487 12.1714 29.168 11.3501 29.168ZM11.3501 23.106C10.8554 23.106 10.4167 23.2553 10.0341 23.554C9.6514 23.8433 9.41806 24.282 9.33406 24.87H13.2541C13.2261 24.3287 13.0347 23.8993 12.6801 23.582C12.3254 23.2647 11.8821 23.106 11.3501 23.106ZM19.0241 26.872C18.6601 26.872 18.3241 26.83 18.0161 26.746L17.4141 27.334C17.5168 27.3993 17.6428 27.4553 17.7921 27.502C17.9415 27.5487 18.1515 27.5907 18.4221 27.628C18.6928 27.6653 19.0615 27.7027 19.5281 27.74C20.4521 27.824 21.1195 28.048 21.5301 28.412C21.9408 28.7667 22.1461 29.2427 22.1461 29.84C22.1461 30.2507 22.0341 30.638 21.8101 31.002C21.5955 31.3753 21.2548 31.674 20.7881 31.898C20.3308 32.1313 19.7428 32.248 19.0241 32.248C18.0535 32.248 17.2648 32.0613 16.6581 31.688C16.0608 31.324 15.7621 30.7687 15.7621 30.022C15.7621 29.7327 15.8368 29.4433 15.9861 29.154C16.1448 28.874 16.3921 28.608 16.7281 28.356C16.5321 28.272 16.3595 28.1833 16.2101 28.09C16.0701 27.9873 15.9441 27.8847 15.8321 27.782V27.446L17.0361 26.214C16.4948 25.7473 16.2241 25.136 16.2241 24.38C16.2241 23.9227 16.3315 23.5073 16.5461 23.134C16.7701 22.7513 17.0921 22.448 17.5121 22.224C17.9321 22 18.4361 21.888 19.0241 21.888C19.4161 21.888 19.7801 21.944 20.1161 22.056H22.7061V23.036L21.4741 23.106C21.6981 23.4887 21.8101 23.9133 21.8101 24.38C21.8101 24.8467 21.6981 25.2667 21.4741 25.64C21.2595 26.0133 20.9421 26.312 20.5221 26.536C20.1115 26.76 19.6121 26.872 19.0241 26.872ZM19.0241 25.71C19.4535 25.71 19.7988 25.598 20.0601 25.374C20.3308 25.1407 20.4661 24.814 20.4661 24.394C20.4661 23.9647 20.3308 23.638 20.0601 23.414C19.7988 23.19 19.4535 23.078 19.0241 23.078C18.5855 23.078 18.2308 23.19 17.9601 23.414C17.6988 23.638 17.5681 23.9647 17.5681 24.394C17.5681 24.814 17.6988 25.1407 17.9601 25.374C18.2308 25.598 18.5855 25.71 19.0241 25.71ZM17.1621 29.882C17.1621 30.2833 17.3395 30.582 17.6941 30.778C18.0488 30.9833 18.4921 31.086 19.0241 31.086C19.5375 31.086 19.9528 30.974 20.2701 30.75C20.5875 30.5353 20.7461 30.246 20.7461 29.882C20.7461 29.6113 20.6388 29.378 20.4241 29.182C20.2095 28.9953 19.8035 28.8787 19.2061 28.832C18.7581 28.804 18.3615 28.762 18.0161 28.706C17.6895 28.8833 17.4655 29.0747 17.3441 29.28C17.2228 29.4853 17.1621 29.686 17.1621 29.882ZM26.5918 29.168C25.7518 29.168 25.0891 28.9067 24.6038 28.384C24.1278 27.8613 23.8898 27.082 23.8898 26.046V22.056H25.3738V25.892C25.3738 27.236 25.9245 27.908 27.0258 27.908C27.5765 27.908 28.0291 27.712 28.3838 27.32C28.7385 26.928 28.9158 26.368 28.9158 25.64V22.056H30.3998V29H29.0838L28.9718 27.782C28.7571 28.2113 28.4398 28.552 28.0198 28.804C27.6091 29.0467 27.1331 29.168 26.5918 29.168ZM32.2876 29V22.056H33.6176L33.7436 23.372C33.9863 22.9147 34.3223 22.5553 34.7516 22.294C35.1903 22.0233 35.7176 21.888 36.3336 21.888V23.442H35.9276C35.5169 23.442 35.1483 23.512 34.8216 23.652C34.5043 23.7827 34.2476 24.0113 34.0516 24.338C33.8649 24.6553 33.7716 25.0987 33.7716 25.668V29H32.2876ZM40.6626 29.168C39.9999 29.168 39.4026 29.0187 38.8706 28.72C38.3479 28.412 37.9326 27.9873 37.6246 27.446C37.3166 26.8953 37.1626 26.256 37.1626 25.528C37.1626 24.8 37.3166 24.1653 37.6246 23.624C37.9419 23.0733 38.3666 22.6487 38.8986 22.35C39.4306 22.042 40.0232 21.888 40.6766 21.888C41.3392 21.888 41.9319 22.042 42.4546 22.35C42.9866 22.6487 43.4066 23.0733 43.7146 23.624C44.0319 24.1653 44.1906 24.8 44.1906 25.528C44.1906 26.256 44.0319 26.8953 43.7146 27.446C43.4066 27.9873 42.9866 28.412 42.4546 28.72C41.9226 29.0187 41.3252 29.168 40.6626 29.168ZM40.6626 27.894C41.0172 27.894 41.3439 27.8053 41.6426 27.628C41.9506 27.4507 42.1979 27.1893 42.3846 26.844C42.5712 26.4893 42.6646 26.0507 42.6646 25.528C42.6646 25.0053 42.5712 24.5713 42.3846 24.226C42.2072 23.8713 41.9646 23.6053 41.6566 23.428C41.3579 23.2507 41.0312 23.162 40.6766 23.162C40.3219 23.162 39.9906 23.2507 39.6826 23.428C39.3839 23.6053 39.1412 23.8713 38.9546 24.226C38.7679 24.5713 38.6746 25.0053 38.6746 25.528C38.6746 26.0507 38.7679 26.4893 38.9546 26.844C39.1412 27.1893 39.3839 27.4507 39.6826 27.628C39.9812 27.8053 40.3079 27.894 40.6626 27.894Z" fill="white"/>
</svg>
