<svg width="166" height="40" viewBox="0 0 166 40" fill="none" xmlns="http://www.w3.org/2000/svg">
<g clip-path="url(#clip0_2129_2368)">
<path d="M67.9636 11.2656H70.4137V39.4921H64.783V14.4573C64.783 12.6946 66.2071 11.2656 67.9636 11.2656Z" fill="white"/>
<path d="M14.0898 11.279C6.30816 11.279 0 17.6218 0 25.4461C0 33.2704 6.30816 39.6132 14.0898 39.6132C19.8634 39.6132 24.8249 36.1215 27.0017 31.1237H20.9849C20.6078 31.1237 20.2509 31.2797 19.9805 31.5434C18.4582 33.0319 16.381 33.9489 14.0898 33.9489C9.41902 33.9489 5.63343 30.1424 5.63343 25.4461C5.63343 20.7499 9.41972 16.9433 14.0898 16.9433C17.7799 16.9433 20.9166 19.3208 22.0709 22.6342H11.6391C9.88255 22.6342 8.45851 24.0633 8.45851 25.8259V28.2846H27.8967C28.0821 27.3676 28.1797 26.4184 28.1797 25.4454C28.1797 17.6211 21.8715 11.2783 14.0891 11.2783L14.0898 11.279Z" fill="white"/>
<path d="M46.3981 11.3014C43.2461 11.3014 40.336 12.3408 37.9897 14.0972V3.19169C37.9897 1.42902 36.5657 0 34.8092 0H32.3201V39.5593H37.9507V36.73C40.3039 38.5038 43.228 39.5551 46.3974 39.5551C54.1721 39.5551 60.4754 33.2305 60.4754 25.4279C60.4754 17.6253 54.1728 11.3007 46.3974 11.3007L46.3981 11.3014ZM46.4169 33.9265C41.9928 33.9265 38.3647 30.5138 37.9988 26.1693V24.7221C38.3647 20.3777 41.9928 16.965 46.4169 16.965C51.0842 16.965 54.8677 20.7617 54.8677 25.4454C54.8677 30.1291 51.0842 33.9258 46.4169 33.9258V33.9265Z" fill="white"/>
<path d="M100.799 16.0166C103.374 16.0166 105.449 16.8532 107.024 18.5242C108.599 20.1959 109.387 22.4454 109.387 25.272V39.4062H104.48V25.591C104.48 24.0109 104.086 22.7868 103.298 21.9208C102.51 21.0542 101.435 20.6212 100.072 20.6212C98.5571 20.6212 97.3533 21.1227 96.4604 22.1258C95.5668 23.1288 95.12 24.6334 95.12 26.6395V39.4062H90.2129V25.591C90.2129 24.0109 89.8414 22.7868 89.0998 21.9208C88.3574 21.0542 87.3049 20.6212 85.9422 20.6212C84.4575 20.6212 83.2461 21.1304 82.3072 22.1489C81.3683 23.168 80.8985 24.6642 80.8985 26.6402V39.4069H75.9913V16.6098H78.1724C79.6779 16.6098 80.8985 17.8345 80.8985 19.3454C82.3525 17.1267 84.5175 16.0166 87.3962 16.0166C90.2749 16.0166 92.4546 17.2176 93.8479 19.6189C95.3619 17.2183 97.6795 16.0166 100.799 16.0166Z" fill="white"/>
<path d="M125.38 40.0001C122.048 40.0001 119.216 38.8453 116.884 36.5349C114.551 34.2253 113.385 31.3826 113.385 28.0083C113.385 24.6341 114.551 21.7921 116.884 19.4818C119.216 17.1721 122.048 16.0166 125.38 16.0166C128.713 16.0166 131.583 17.1721 133.9 19.4818C136.216 21.7921 137.376 24.6341 137.376 28.0083C137.376 31.3826 136.217 34.2253 133.9 36.5349C131.583 38.8453 128.742 40.0001 125.38 40.0001ZM120.337 33.1607C121.7 34.5288 123.381 35.2122 125.38 35.2122C127.38 35.2122 129.061 34.5281 130.424 33.1607C131.788 31.7925 132.469 30.076 132.469 28.0083C132.469 25.9407 131.787 24.2242 130.424 22.856C129.061 21.4879 127.38 20.8045 125.38 20.8045C123.381 20.8045 121.7 21.4886 120.337 22.856C118.973 24.2242 118.292 25.9414 118.292 28.0083C118.292 30.0753 118.974 31.7925 120.337 33.1607Z" fill="white"/>
<path d="M154.686 16.0161C157.806 16.0161 160.472 17.1716 162.683 19.4813C164.894 21.7916 166.001 24.6336 166.001 28.0078C166.001 31.3821 164.894 34.1863 162.683 36.5113C160.472 38.8364 157.806 39.9996 154.686 39.9996C151.233 39.9996 148.582 38.7077 146.735 36.1238V39.4064H141.828V6.88867H143.071C145.095 6.88867 146.735 8.53523 146.735 10.5658V19.8464C148.582 17.2933 151.233 16.0161 154.686 16.0161ZM148.78 33.2287C150.143 34.6122 151.854 35.3033 153.914 35.3033C155.975 35.3033 157.685 34.6122 159.048 33.2287C160.412 31.8458 161.093 30.1055 161.093 28.0078C161.093 25.9101 160.411 24.1705 159.048 22.787C157.685 21.4041 155.974 20.7123 153.914 20.7123C151.854 20.7123 150.143 21.4041 148.78 22.787C147.416 24.1705 146.735 25.9101 146.735 28.0078C146.735 30.1055 147.417 31.8458 148.78 33.2287Z" fill="white"/>
</g>
<defs>
<clipPath id="clip0_2129_2368">
<rect width="166" height="40" fill="white"/>
</clipPath>
</defs>
</svg>
