<svg width="166" height="42" viewBox="0 0 166 42" fill="none" xmlns="http://www.w3.org/2000/svg">
<g clip-path="url(#clip0_2285_174)">
<path d="M40.5263 13.0972C36.073 2.42858 23.7409 -2.64219 13.0001 1.7727C2.25916 6.1876 -2.84324 18.4137 1.61172 29.0841C6.06669 39.7544 18.397 44.8218 29.1362 40.4069C39.8754 35.992 44.9829 23.7658 40.5263 13.0972Z" fill="white"/>
<path d="M28.6361 2.98294C18.5615 -1.1557 7.00699 3.59815 2.8295 13.6007C-1.34799 23.6033 3.43411 35.0651 13.507 39.2021C23.5799 43.339 35.1344 38.5885 39.3119 28.586C43.4894 18.5834 38.709 7.1182 28.6361 2.98294Z" fill="white"/>
<path d="M38.5789 18.2563C38.5789 8.64355 30.7411 0.866211 21.0673 0.866211C11.3935 0.866211 3.56433 8.64355 3.56433 18.2563C3.56433 27.8691 11.4021 35.6465 21.0673 35.6465C30.7326 35.6465 38.5789 27.8606 38.5789 18.2563Z" fill="#0455AB"/>
<path d="M21.0673 36.0988C11.0304 36.0988 2.89465 28.0232 2.89465 18.0511C2.89465 8.07901 11.0304 0 21.0673 0C31.1043 0 39.2417 8.0824 39.2417 18.0511C39.2417 28.0198 31.106 36.0988 21.0673 36.0988ZM21.0673 1.33549C17.7148 1.32072 14.4333 2.29136 11.6389 4.12432C8.84457 5.95728 6.66323 8.57001 5.37147 11.6312C4.07971 14.6925 3.73573 18.0643 4.38312 21.3192C5.03052 24.5741 6.64014 27.5655 9.0079 29.9141C11.3757 32.2626 14.3949 33.8626 17.6828 34.5111C20.9707 35.1596 24.3792 34.8275 27.4761 33.5568C30.573 32.2861 33.2188 30.134 35.078 27.3735C36.9373 24.613 37.9262 21.3684 37.9195 18.0511C37.9143 8.81285 30.3729 1.31684 21.0673 1.30667V1.33549Z" fill="white"/>
<path d="M32.6714 26.2198C32.6714 18.2544 26.1628 11.7837 18.1367 11.7837C10.1105 11.7837 3.5968 18.2476 3.5968 26.2198C3.5968 34.1921 10.1054 40.6542 18.1298 40.6542C26.1542 40.6542 32.6645 34.1904 32.6645 26.2198H32.6714Z" fill="#0455AB"/>
<path d="M18.1675 41.3121C17.0868 41.3122 16.0091 41.1986 14.9526 40.9732C6.7501 39.2309 1.5261 31.2096 3.28513 23.0611C3.69809 21.1271 4.49251 19.2926 5.62292 17.6628C6.75333 16.033 8.19752 14.6399 9.87281 13.5631C11.5481 12.4863 13.4216 11.7471 15.386 11.3877C17.3504 11.0283 19.3672 11.0559 21.3208 11.4688C29.5268 13.2144 34.7508 21.2341 32.9969 29.3826C32.2758 32.7451 30.4135 35.7622 27.7194 37.9324C25.0254 40.1026 21.662 41.2953 18.1881 41.3121H18.1675ZM18.1333 12.4365C14.9741 12.4276 11.9057 13.4821 9.43237 15.4269C6.959 17.3717 5.22768 20.0911 4.52285 23.1383C3.81802 26.1855 4.1816 29.3793 5.55386 32.195C6.92611 35.0108 9.22544 37.2809 12.0741 38.6325C14.9227 39.9841 18.1513 40.3369 21.2293 39.6328C24.3073 38.9286 27.0518 37.2095 29.0118 34.7579C30.9718 32.3062 32.0308 29.2679 32.0149 26.1419C31.9989 23.0159 30.9089 19.9883 28.9239 17.5564C27.6242 15.9617 25.9809 14.6743 24.114 13.7885C22.2471 12.9027 20.2037 12.4408 18.1333 12.4365Z" fill="white"/>
<path d="M39.848 26.8266C39.8409 25.0638 39.3061 23.3425 38.3111 21.8801C37.3162 20.4178 35.9057 19.2798 34.2577 18.61C32.6097 17.9402 30.7981 17.7685 29.0516 18.1166C27.305 18.4647 25.7019 19.317 24.4445 20.5659C23.1871 21.8148 22.3318 23.4043 21.9866 25.1338C21.6415 26.8633 21.8219 28.6552 22.505 30.2833C23.1882 31.9114 24.3436 33.3027 25.8253 34.2816C27.3069 35.2606 29.0485 35.7832 30.8301 35.7835C32.0166 35.7815 33.191 35.5482 34.2864 35.097C35.3817 34.6457 36.3764 33.9853 37.2137 33.1535C38.051 32.3217 38.7144 31.3348 39.1661 30.2492C39.6178 29.1637 39.8489 28.0006 39.8462 26.8266H39.848Z" fill="#0455AB"/>
<path d="M30.8301 36.4379C28.9075 36.4453 27.0258 35.8879 25.4235 34.8363C23.8212 33.7847 22.5704 32.2863 21.8295 30.5307C21.0885 28.7752 20.8908 26.8416 21.2613 24.9747C21.6318 23.1079 22.5539 21.3919 23.9108 20.044C25.2677 18.6962 26.9984 17.7771 28.8836 17.4032C30.7688 17.0293 32.7237 17.2175 34.5008 17.9438C36.2778 18.6701 37.7971 19.902 38.866 21.4833C39.935 23.0647 40.5057 24.9243 40.5057 26.8268C40.5082 28.0865 40.2598 29.3344 39.7749 30.4991C39.29 31.6639 38.578 32.7227 37.6796 33.6152C36.7811 34.5076 35.7138 35.2163 34.5386 35.7006C33.3633 36.1849 32.1032 36.4355 30.8301 36.4379ZM30.8301 18.5275C29.1687 18.5204 27.5425 19.0015 26.1577 19.9097C24.7728 20.8179 23.6915 22.1124 23.0507 23.6292C22.41 25.146 22.2386 26.8168 22.5584 28.4301C22.8782 30.0433 23.6746 31.5263 24.8469 32.6913C26.0192 33.8563 27.5146 34.6507 29.1436 34.974C30.7726 35.2974 32.4619 35.135 33.9975 34.5075C35.5332 33.88 36.8461 32.8157 37.7699 31.4493C38.6937 30.0828 39.1868 28.4759 39.1868 26.8319C39.1913 25.7431 38.9785 24.6641 38.5606 23.6569C38.1427 22.6497 37.5279 21.734 36.7515 20.9624C35.975 20.1909 35.0523 19.5786 34.0362 19.1608C33.02 18.7429 31.9305 18.5277 30.8301 18.5275ZM57.1899 22.0865H54.0076L52.7144 28.1674H49.0782L52.6134 11.7416H59.4645C62.2512 11.7416 64.1541 13.6736 64.1541 15.9023C64.149 20.307 60.6018 22.0814 57.1917 22.0814L57.1899 22.0865ZM57.6387 14.155H55.6998L54.5009 19.6765H55.7443C58.1834 19.6765 60.4391 19.1291 60.4391 16.248C60.4442 14.9362 59.0586 14.1499 57.6404 14.1499L57.6387 14.155ZM75.7377 23.7779C75.3977 25.2172 75.1975 26.6853 75.14 28.1623H71.6287C71.6801 27.5488 71.9062 26.3879 72.1049 25.2591C71.2074 26.8573 69.7464 28.4352 67.3005 28.4352C64.7862 28.4352 63.5153 26.7675 63.5153 24.4948C63.5153 18.9512 68.52 15.526 73.2884 15.526C74.7323 15.526 76.601 15.7735 77.4694 16.0938L75.7377 23.7779ZM72.6222 17.8174C69.7584 17.8174 67.1412 20.8171 67.1412 24.1253C67.1412 25.232 67.5386 26.1455 68.8266 26.1455C70.5685 26.1455 72.2351 23.7728 72.9373 20.8103L73.6104 17.953C73.2913 17.8496 72.956 17.8037 72.6204 17.8174H72.6222ZM89.0649 26.5116C87.9465 31.4891 86.1018 33.7534 80.5781 33.7534C79.1065 33.7552 77.6439 33.5264 76.2447 33.0755L76.9041 30.6248C78.009 31.1985 79.2413 31.4897 80.489 31.4722C83.5994 31.4722 84.795 29.8469 85.3687 27.5301L85.7661 25.9065C84.5671 27.4844 83.3271 28.1708 81.2615 28.1708C78.6923 28.1708 77.4505 26.5963 77.4505 24.5033C77.4505 18.9359 82.5786 15.5616 87.3607 15.5616C88.7277 15.5664 90.0883 15.7476 91.408 16.1006L89.0649 26.5116ZM86.6259 17.8445C83.7621 17.8445 81.0988 20.751 81.0988 24.1982C81.0988 25.3049 81.4961 26.1184 82.7173 26.1184C85.0587 26.1184 86.3519 23.1644 86.8743 20.9714L87.5954 18.0038C87.282 17.9036 86.9552 17.8499 86.6259 17.8445ZM103.67 14.7447C102.6 14.2227 101.425 13.9447 100.232 13.9312C98.7165 13.9312 96.4488 14.621 96.4488 16.3209C96.4488 18.7088 103.022 18.3428 103.022 22.8729C103.022 26.4709 99.5849 28.4402 95.38 28.4402C93.7324 28.4689 92.0915 28.2267 90.5242 27.7234L91.3977 25.0575C92.6602 25.6991 94.0657 26.0156 95.4845 25.9777C97.2538 25.954 99.2183 25.1642 99.2183 23.339C99.2183 20.7561 92.6995 21.0256 92.6995 16.8615C92.6995 12.9483 96.6543 11.4942 100.448 11.4942C101.843 11.4923 103.227 11.7421 104.531 12.2314L103.67 14.7447ZM107.609 22.9458C107.49 23.3201 107.432 23.7109 107.438 24.1033C107.438 25.771 108.731 26.437 110.25 26.437C111.608 26.4137 112.934 26.0215 114.082 25.3032L113.96 27.4979C112.469 28.1719 110.843 28.5 109.204 28.4572C106.491 28.4572 103.927 27.298 103.927 24.2694C103.927 19.3664 107.695 15.5752 112.117 15.5752C114.138 15.5752 116.423 16.2887 116.423 18.5546C116.437 22.4306 110.735 22.9458 107.613 22.9458H107.609ZM111.814 17.553C109.93 17.553 108.56 19.4986 107.933 21.0985C110.173 21.0985 113.308 20.7053 113.308 18.7648C113.337 17.8496 112.664 17.5513 111.828 17.5513L111.814 17.553ZM127.914 26.5167C126.794 31.4942 124.955 33.7585 119.424 33.7585C117.954 33.7601 116.492 33.5313 115.094 33.0805L115.769 30.6384C116.874 31.2122 118.106 31.5035 119.354 31.4858C122.466 31.4858 123.66 29.8605 124.232 27.5437L124.633 25.9201C123.434 27.4979 122.194 28.1843 120.125 28.1843C117.555 28.1843 116.319 26.6099 116.319 24.5168C116.319 18.9495 121.445 15.5752 126.224 15.5752C127.589 15.576 128.949 15.7526 130.268 16.1006L127.914 26.5167ZM125.475 17.8496C122.612 17.8496 119.95 20.7561 119.95 24.2033C119.95 25.31 120.347 26.1235 121.567 26.1235C123.906 26.1235 125.2 23.1695 125.725 20.9764L126.447 18.0089C126.132 17.9078 125.804 17.8541 125.474 17.8496H125.475ZM141.706 25.3862C141.5 26.3047 141.341 27.2329 141.231 28.1674H138.02L138.362 25.954C137.292 27.4047 135.965 28.4402 133.909 28.4402C131.854 28.4402 130.484 27.4403 130.484 25.3896C130.476 24.9178 130.517 24.4464 130.607 23.983L132.373 15.7819H135.81L134.25 23.239C134.139 23.658 134.072 24.0874 134.051 24.5202C134.051 25.4574 134.5 26.1472 135.696 26.1472C137.563 26.1472 138.436 24.4524 138.779 22.8695L140.32 15.7752H143.746L141.706 25.3862ZM152.933 18.758C152.609 18.6418 152.267 18.5844 151.923 18.5885C149.655 18.5885 148.387 20.7595 147.963 22.7305L146.794 28.1708H143.331L145.387 18.5648C145.6 17.6626 145.767 16.7502 145.887 15.8311H149.12L148.649 18.3733C149.42 16.848 150.941 15.5396 152.733 15.5396C153.068 15.5315 153.403 15.5732 153.726 15.6633L152.933 18.758ZM157.96 28.4402C155.197 28.4402 152.65 26.937 152.65 23.9559C152.65 19.1783 155.763 15.5582 160.716 15.5582C163.479 15.5582 165.993 17.0123 165.993 20.0155C165.993 24.7439 162.831 28.4402 157.953 28.4402H157.96ZM160.127 17.8496C157.558 17.8496 156.27 21.4425 156.27 23.5864C156.27 25.0642 156.842 26.1506 158.459 26.1506C160.973 26.1506 162.419 22.5305 162.419 20.4087C162.419 18.9274 161.744 17.8445 160.127 17.8445V17.8496Z" fill="white"/>
</g>
<defs>
<clipPath id="clip0_2285_174">
<rect width="166" height="42" fill="white"/>
</clipPath>
</defs>
</svg>
