<svg width="28" height="28" viewBox="0 0 28 28" fill="none" xmlns="http://www.w3.org/2000/svg">
<g clip-path="url(#clip0_2129_2378)">
<path d="M19.6311 0H8.36889C3.74889 0 0 3.74889 0 8.36889V19.6311C0 24.2511 3.74889 28 8.36889 28H19.6311C24.2511 28 28 24.2511 28 19.6311V8.36889C28 3.74889 24.2511 0 19.6311 0ZM8.36889 2.64444H19.6311C21.9722 2.64444 23.9867 4.06 24.8733 6.08222L18.0522 12.9033C15.82 15.1356 12.1878 15.1356 9.95556 12.9033L3.12667 6.08222C4.01333 4.06 6.02778 2.64444 8.36889 2.64444ZM19.6311 25.3556H8.36889C5.21111 25.3556 2.64444 22.7889 2.64444 19.6311V9.34111L8.08111 14.7778C11.3478 18.0444 16.6522 18.0444 19.9189 14.7778L25.3556 9.34111V19.6311C25.3556 22.7889 22.7889 25.3556 19.6311 25.3556Z" fill="white"/>
</g>
<defs>
<clipPath id="clip0_2129_2378">
<rect width="28" height="28" fill="white"/>
</clipPath>
</defs>
</svg>
