<svg width="28" height="28" viewBox="0 0 28 28" fill="none" xmlns="http://www.w3.org/2000/svg">
<g clip-path="url(#clip0_2129_2385)">
<path d="M20.93 15.5011V20.4011C20.93 20.5256 20.8289 20.6189 20.7122 20.6189H18.1844C18.06 20.6189 17.9667 20.5178 17.9667 20.4011V15.8433C17.9667 14.6456 17.5389 13.8289 16.4656 13.8289C15.6489 13.8289 15.1589 14.3811 14.9411 14.91C14.8633 15.1044 14.84 15.3689 14.84 15.6333V20.3933C14.84 20.5178 14.7389 20.6111 14.6222 20.6111H12.0944C11.97 20.6111 11.8767 20.51 11.8767 20.3933C11.8767 19.18 11.9078 13.2922 11.8767 11.9156C11.8767 11.7911 11.97 11.69 12.0944 11.69H14.6144C14.7389 11.69 14.8322 11.7911 14.8322 11.9078V12.95C14.8322 12.95 14.8167 12.9733 14.8089 12.9811H14.8322V12.95C15.2289 12.3433 15.9289 11.48 17.5078 11.48C19.46 11.48 20.9222 12.7556 20.9222 15.4933L20.93 15.5011ZM10.01 11.6978H7.48222C7.35778 11.6978 7.26444 11.7989 7.26444 11.9156V20.4011C7.26444 20.5256 7.36556 20.6189 7.48222 20.6189H10.01C10.1344 20.6189 10.2278 20.5178 10.2278 20.4011V11.9156C10.2278 11.7911 10.1267 11.6978 10.01 11.6978ZM8.66444 7.38111C7.78556 7.38111 7.07778 8.08889 7.07778 8.96778C7.07778 9.84667 7.78556 10.5544 8.66444 10.5544C9.54333 10.5544 10.2511 9.84667 10.2511 8.96778C10.2511 8.08889 9.54333 7.38111 8.66444 7.38111ZM28 8.36889V19.6311C28 24.2511 24.2511 28 19.6311 28H8.36889C3.74889 28 0 24.2511 0 19.6311V8.36889C0 3.74889 3.74889 0 8.36889 0H19.6311C24.2511 0 28 3.74889 28 8.36889ZM25.3556 8.36889C25.3556 5.21111 22.7889 2.64444 19.6311 2.64444H8.36889C5.21111 2.64444 2.64444 5.21111 2.64444 8.36889V19.6311C2.64444 22.7889 5.21111 25.3556 8.36889 25.3556H19.6311C22.7889 25.3556 25.3556 22.7889 25.3556 19.6311V8.36889Z" fill="white"/>
</g>
<defs>
<clipPath id="clip0_2129_2385">
<rect width="28" height="28" fill="white"/>
</clipPath>
</defs>
</svg>
