<svg width="28" height="28" viewBox="0 0 28 28" fill="none" xmlns="http://www.w3.org/2000/svg">
<g clip-path="url(#clip0_2129_2382)">
<path d="M20.9922 17.5C21.0622 17.8267 20.9922 18.1689 20.8755 18.48C20.4478 19.5222 19.3744 20.1911 18.2933 20.4011C17.2589 20.5956 16.4033 20.2689 15.4466 19.95C14.5911 19.67 13.7666 19.2578 13.0044 18.7911C11.4722 17.85 10.15 16.5978 9.08443 15.1511C8.75776 14.7078 8.45443 14.2489 8.18221 13.7744C7.81665 13.1444 7.48998 12.4833 7.31887 11.7756C7.24887 11.48 7.20998 11.1767 7.20998 10.8733C7.19443 9.8 7.60665 8.71889 8.45443 8.02667C8.94443 7.63 9.66776 7.45111 10.22 7.76222C10.8189 8.10444 11.13 8.95222 11.41 9.55111C11.6278 10.0178 11.8766 10.6322 11.7833 11.1611C11.69 11.69 11.2778 12.1333 10.9433 12.5222C10.7178 12.7867 10.6866 13.0122 10.8733 13.2922C11.97 15.12 13.4944 16.45 15.4855 17.2433C15.7578 17.3522 15.9678 17.3211 16.1389 17.1033C16.4811 16.6833 16.8233 15.8511 17.3522 15.6333C18.0444 15.3533 18.8067 15.7422 19.39 16.0922C19.9344 16.4189 20.8522 16.8233 21 17.4922L20.9922 17.5ZM28 14C28 21.7233 21.7155 28 14 28C11.6978 28 9.42665 27.4322 7.40443 26.3511L1.54776 27.9611C1.43887 27.9922 1.32998 28.0078 1.22109 28.0078C0.871095 28.0078 0.528873 27.8522 0.287761 27.58C-0.0233496 27.2222 -0.0933496 26.7167 0.101095 26.2811L2.22443 21.5989C0.769984 19.32 -1.62758e-05 16.7144 -1.62758e-05 14C-1.62758e-05 6.27667 6.27665 0 14 0C21.7233 0 28 6.27667 28 14ZM25.5578 14C25.5578 7.63 20.3778 2.44222 14 2.44222C7.62221 2.44222 2.44221 7.63 2.44221 14C2.44221 16.4422 3.19665 18.7756 4.61998 20.7511C4.87665 21.1089 4.92332 21.5756 4.74443 21.9722L3.41443 24.9122L7.24109 23.8622C7.34998 23.8311 7.45887 23.8156 7.56776 23.8156C7.78554 23.8156 7.99554 23.87 8.18221 23.9789C9.93998 25.0056 11.9544 25.55 14 25.55C20.37 25.55 25.5578 20.37 25.5578 13.9922V14Z" fill="white"/>
</g>
<defs>
<clipPath id="clip0_2129_2382">
<rect width="28" height="28" fill="white"/>
</clipPath>
</defs>
</svg>
